<svg width="30" height="20" viewBox="0 0 30 20" fill="none" xmlns="http://www.w3.org/2000/svg">
<path d="M29.3748 3.1336C29.2049 2.52764 28.874 1.97903 28.4173 1.5461C27.9477 1.09986 27.372 0.780646 26.7448 0.618601C24.3973 -0.000149183 14.9923 -0.000149044 14.9923 -0.000149044C11.0715 -0.0447582 7.15158 0.151444 3.2548 0.587351C2.62753 0.761367 2.053 1.08771 1.58229 1.53735C1.11979 1.98235 0.784795 2.5311 0.609795 3.13235C0.189411 5.39703 -0.0148401 7.69653 -0.000205083 9.99985C-0.0152051 12.3011 0.188545 14.5999 0.609795 16.8674C0.781045 17.4661 1.11479 18.0124 1.57854 18.4536C2.04229 18.8949 2.6198 19.2136 3.2548 19.3824C5.63354 19.9999 14.9923 19.9999 14.9923 19.9999C18.9181 20.0445 22.843 19.8483 26.7448 19.4124C27.372 19.2503 27.9477 18.9311 28.4173 18.4849C28.8739 18.052 29.2044 17.5033 29.3735 16.8974C29.8049 14.6335 30.0146 12.3331 29.9998 10.0286C30.0322 7.71436 29.8228 5.40306 29.3748 3.13235V3.1336ZM12.0023 14.2799V5.7211L19.8273 10.0011L12.0023 14.2799Z" fill="#333333"/>
</svg>
